<svg xmlns="http://www.w3.org/2000/svg" width="24.705" height="27.489" viewBox="0 0 24.705 27.489"><path d="M78.575,48.381a6.549,6.549,0,0,1-.516-2.552V39.487A9.869,9.869,0,0,0,70.8,30.155a3.106,3.106,0,0,0-6.071,0,9.869,9.869,0,0,0-7.258,9.332v6.341a6.549,6.549,0,0,1-.516,2.552l-1.47,3.505a.944.944,0,0,0,.1.915,1.043,1.043,0,0,0,.852.431h7.825a4.1,4.1,0,0,0,7,0h7.825a1.043,1.043,0,0,0,.852-.431.944.944,0,0,0,.1-.915l-1.47-3.505ZM57.962,51.268l.906-2.159a8.439,8.439,0,0,0,.662-3.281V39.487a8.244,8.244,0,0,1,16.47,0v6.341a8.439,8.439,0,0,0,.662,3.281l.906,2.159Z" transform="translate(-55.413 -27.706)" fill="#92187b"/></svg>