<svg xmlns="http://www.w3.org/2000/svg" width="24" height="24" viewBox="0 0 24 24"><g transform="translate(8.675 8.432)"><path d="M159.741,156.416a3.325,3.325,0,1,0,3.325,3.325A3.327,3.327,0,0,0,159.741,156.416Zm-.252,2.339a.763.763,0,0,0-.757.757h-1.1a1.879,1.879,0,0,1,1.857-1.857Z" transform="translate(-156.416 -156.416)" fill="#707070"/></g><g transform="translate(2 5.257)"><g transform="translate(0)"><path d="M19.767,88c-1.088-1.367-4.972-5.828-9.767-5.828S1.321,86.636.233,88a1.086,1.086,0,0,0,0,1.345C1.321,90.716,5.205,95.176,10,95.176s8.679-4.46,9.767-5.828A1.086,1.086,0,0,0,19.767,88ZM10,93.383a4.707,4.707,0,1,1,4.661-4.707A4.684,4.684,0,0,1,10,93.383Z" transform="translate(0 -82.176)" fill="#707070"/></g></g><rect width="24" height="24" transform="translate(0)" fill="none"/></svg>