<svg xmlns="http://www.w3.org/2000/svg" width="24" height="24" viewBox="0 0 24 24"><g transform="translate(0 -0.004)"><path d="M23.122,7.247,22.062,8.308,15.7,1.944,16.758.883A3,3,0,0,1,21,.883L23.122,3A3,3,0,0,1,23.122,7.247ZM8.272,19.974a.75.75,0,0,0,1.061,1.06L21,9.369,19.939,8.307Zm-5.3-5.3a.75.75,0,0,0,1.061,1.06L15.7,4.065,14.637,3ZM16.756,5.125,5.089,16.792a1.5,1.5,0,1,0,2.123,2.12L18.879,7.247ZM7.208,22.092a2.189,2.189,0,0,1-.6-1.283,3.027,3.027,0,0,1-.463.045,2.93,2.93,0,0,1-2.957-3.432,2.225,2.225,0,0,1-1.285-.63c-.034-.033-.045-.079-.076-.116L0,24l7.308-1.829C7.276,22.145,7.239,22.123,7.208,22.092Z" fill="#92187b"/></g></svg>