<svg xmlns="http://www.w3.org/2000/svg" width="16.159" height="18.147" viewBox="0 0 16.159 18.147"><path d="M42.879,1.322a4.525,4.525,0,0,0-6.393,0L29.755,8.053a.532.532,0,0,0,.752.752l6.731-6.731a3.541,3.541,0,0,1,4.889,0,3.461,3.461,0,0,1,0,4.888l-9.4,9.5a2.178,2.178,0,0,1-3.008,0,2.129,2.129,0,0,1,0-3.008L38.742,4.33a.817.817,0,0,1,1.128,0,.8.8,0,0,1,0,1.129l-8.646,8.753a.593.593,0,0,0,0,.752.532.532,0,0,0,.752,0L40.622,6.21a1.863,1.863,0,0,0,0-2.632,1.907,1.907,0,0,0-2.632,0l-9.023,9.129a3.212,3.212,0,0,0,0,4.512,3.207,3.207,0,0,0,4.512,0l9.4-9.5A4.525,4.525,0,0,0,42.879,1.322Z" transform="translate(-28.042 0)" fill="#191919"/></svg>